mtllib Mountain_c.mtl
o map
v 0.250001 0.75 0.875002
v 0.750001 0.25 0.125002
v 1.000001 0.25 0.125002
v 1.000001 0.75 0.875002
v 1.013279E-6 0.0 1.000002
v 0.250001 0.0 0.875002
v 0.250001 0.75 0.875002
v 1.013279E-6 1.0 1.000002
v 1.013279E-6 1.0 1.000002
v 1.000001 1.0 1.000002
v 0.750001 0.0 0.125002
v 0.750001 0.25 0.125002
v 1.000001 0.0 2.0E-6
v 1.000001 0.25 0.125002
v 0.750001 0.25 0.125002
v 1.000001 0.0 2.0E-6
v 0.750001 0.25 0.125002
v 0.750001 0.0 0.125002
vt 0.5 -0.125
vt 0.625 -0.8125
vt 1.0 -0.8125
vt 1.0 -0.125
vt 0.0 0.0
vt 0.0 -0.125
vt 0.5 -0.125
vt 0.5 0.0
vt 0.5 0.0
vt 1.0 0.0
vt 0.0 -0.8125
vt 0.375 -0.8125
vt 0.8125 -1.0
vt 1.0 -0.8125
vt 0.625 -0.8125
vt 0.1875 -1.0
vt 0.375 -0.8125
vt 0.0 -0.8125
vn -0.0 -0.6605 0.7508
vn 0.0 -0.6618 0.7497
vn -0.0 0.0 1.0
vn 0.6618 0.0 0.7497
vn 0.6628 0.0 0.7488
vn -0.0 -0.4472 0.8944
vn 0.4472 0.0 0.8944
c 1.0 1.0 1.0
usemtl criffp_lm42
s off
f 1/1/1/1 2/2/2/1 3/3/2/1 4/4/2/1
f 5/5/3/1 6/6/4/1 7/7/5/1 8/8/3/1
f 9/9/3/1 1/1/1/1 4/4/2/1 10/10/3/1
f 6/6/4/1 11/11/4/1 12/12/4/1 7/7/5/1
f 13/13/6/1 14/14/2/1 15/15/2/1
f 16/16/7/1 17/17/4/1 18/18/4/1
