mtllib Mountain_ground_bot_bl.mtl
o map
v 0.999999 0.25 0.875002
v 0.499999 0.625 0.125002
v 0.374999 0.5 0.125002
v 0.749999 0.0 0.875002
v 0.499999 0.875 2.0E-6
v 0.12499899 0.5 2.0E-6
v 0.999999 0.75 0.125002
v 0.999999 1.0 2.0E-6
v 0.499999 0.875 2.0E-6
v 0.499999 0.625 0.125002
v 0.374999 0.5 0.125002
v 0.12499899 0.5 2.0E-6
v -9.536743E-7 0.0 2.0E-6
v 0.24999899 0.0 0.125002
v 0.499999 0.625 0.125002
v 0.999999 0.25 0.875002
v 0.999999 0.75 0.125002
v 0.999999 0.25 0.875002
v 0.749999 0.0 0.875002
v 0.999999 0.0 1.000002
v 0.374999 0.5 0.125002
v 0.24999899 0.0 0.125002
v 0.749999 0.0 0.875002
v -9.536743E-7 0.0 2.0E-6
v 0.12499899 0.5 2.0E-6
v -9.536743E-7 1.0 2.0E-6
v 0.499999 0.875 2.0E-6
v 0.999999 1.0 2.0E-6
v 0.999999 0.75 0.125002
v 0.999999 1.0 2.0E-6
v 0.999999 0.0 1.000002
v 0.999999 0.25 0.875002
vt 1.0 0.0
vt 0.875 -0.5
vt 1.0 -1.0
vt 0.5 -0.875
vt 0.0 -1.0
vt 0.375 -0.125
vt 0.4375 -0.8125
vt 0.5625 -0.8125
vt 0.625 -0.125
vt 0.375 -1.0
vt 0.625 -1.0
vt 0.15625 -0.8125
vt 0.125 -1.0
vt 0.375 -1.0
vt 0.4375 -0.8125
vt 0.5625 -0.8125
vt 0.625 -1.0
vt 0.875 -1.0
vt 0.84375 -0.8125
vt 0.4375 -0.8125
vt 0.375 -0.125
vt 0.15625 -0.8125
vt 0.46875 -0.125
vt 0.53125 -0.125
vt 0.5 0.0
vt 0.5625 -0.8125
vt 0.84375 -0.8125
vt 0.625 -0.125
vn -0.2284 0.0566 0.9719
vn -0.2228 0.1348 0.9655
vn 0.0 -0.0 1.0
vn -0.1348 0.2228 0.9655
vn -0.0566 0.2284 0.9719
vn -0.3983 0.6073 0.6874
vn -0.3304 0.5735 0.7496
vn -0.575 0.3282 0.7495
vn -0.6073 0.3983 0.6874
vn -0.1621 0.6524 0.7403
vn -0.0566 0.2283 0.9719
vn -0.1349 0.2228 0.9655
vn -0.3299 0.5739 0.7496
vn -0.5739 0.3299 0.7496
vn -0.2228 0.1349 0.9655
vn -0.2283 0.0566 0.9719
vn -0.6524 0.1621 0.7403
vn -0.3984 0.6073 0.6874
vn -0.6073 0.3984 0.6874
c 1.0 1.0 1.0
usemtl criffp_lm42
s off
f 1/6/6/1 2/7/7/1 3/8/8/1 4/9/9/1
f 2/7/7/1 5/10/4/1 6/11/2/1 3/8/8/1
f 7/12/10/1 8/13/11/1 9/14/12/1 10/15/13/1
f 11/16/14/1 12/17/15/1 13/18/16/1 14/19/17/1
f 15/20/13/1 16/21/18/1 17/22/10/1
f 18/23/18/1 19/24/19/1 20/25/3/1
f 21/26/14/1 22/27/17/1 23/28/19/1
usemtl criff_lm44
s off
f 24/1/1/1 25/2/2/1 26/3/3/1
f 25/2/2/1 27/4/4/1 26/3/3/1
f 26/3/3/1 27/4/4/1 28/5/5/1
